<?xml version="1.0" encoding="UTF-8"?>
<svg width="62px" height="55px" viewBox="0 0 62 55" version="1.1" xmlns="http://www.w3.org/2000/svg" xmlns:xlink="http://www.w3.org/1999/xlink">
    <title>Group 6</title>
    <g id="Page-1" stroke="none" stroke-width="1" fill="none" fill-rule="evenodd">
        <g id="Group-6" transform="translate(1.000000, 1.259000)">
            <path d="M1.471,0 L52.788,0 C53.601,0 54.259,0.522254373 54.259,1.16576052 L54.259,41.8342395 C54.259,42.4785381 53.601,43 52.788,43 L1.471,43 C0.658,43 3.55271368e-15,42.4785381 3.55271368e-15,41.8342395 L3.55271368e-15,1.16576052 C3.55271368e-15,0.522254373 0.658,0 1.471,0 Z" id="Stroke-125" stroke="#EF3054" stroke-width="2"></path>
            <path d="M58.93,52.077 C58.93,51.608 59.311,51.227 59.78,51.227 C60.249,51.227 60.629,51.608 60.629,52.077 C60.629,52.546 60.249,52.926 59.78,52.926 C59.311,52.926 58.93,52.546 58.93,52.077" id="Fill-126" fill="#2C343C"></path>
            <path d="M45.621,52.077 C45.621,51.608 46.002,51.227 46.471,51.227 C46.94,51.227 47.32,51.608 47.32,52.077 C47.32,52.546 46.94,52.926 46.471,52.926 C46.002,52.926 45.621,52.546 45.621,52.077" id="Fill-127" fill="#2C343C"></path>
            <path d="M32.312,52.077 C32.312,51.608 32.692,51.227 33.162,51.227 C33.631,51.227 34.011,51.608 34.011,52.077 C34.011,52.546 33.631,52.926 33.162,52.926 C32.692,52.926 32.312,52.546 32.312,52.077" id="Fill-128" fill="#2C343C"></path>
            <path d="M19.003,52.077 C19.003,51.608 19.383,51.227 19.852,51.227 C20.322,51.227 20.702,51.608 20.702,52.077 C20.702,52.546 20.322,52.926 19.852,52.926 C19.383,52.926 19.003,52.546 19.003,52.077" id="Fill-129" fill="#2C343C"></path>
            <path d="M5.694,52.077 C5.694,51.608 6.074,51.227 6.543,51.227 C7.012,51.227 7.393,51.608 7.393,52.077 C7.393,52.546 7.012,52.926 6.543,52.926 C6.074,52.926 5.694,52.546 5.694,52.077" id="Fill-130" fill="#2C343C"></path>
            <path d="M58.93,40.184 C58.93,39.714 59.311,39.334 59.78,39.334 C60.249,39.334 60.629,39.714 60.629,40.184 C60.629,40.653 60.249,41.033 59.78,41.033 C59.311,41.033 58.93,40.653 58.93,40.184" id="Fill-131" fill="#2C343C"></path>
            <path d="M45.621,40.184 C45.621,39.714 46.002,39.334 46.471,39.334 C46.94,39.334 47.32,39.714 47.32,40.184 C47.32,40.653 46.94,41.033 46.471,41.033 C46.002,41.033 45.621,40.653 45.621,40.184" id="Fill-132" fill="#2C343C"></path>
            <path d="M32.312,40.184 C32.312,39.714 32.692,39.334 33.162,39.334 C33.631,39.334 34.011,39.714 34.011,40.184 C34.011,40.653 33.631,41.033 33.162,41.033 C32.692,41.033 32.312,40.653 32.312,40.184" id="Fill-133" fill="#2C343C"></path>
            <path d="M19.003,40.184 C19.003,39.714 19.383,39.334 19.852,39.334 C20.322,39.334 20.702,39.714 20.702,40.184 C20.702,40.653 20.322,41.033 19.852,41.033 C19.383,41.033 19.003,40.653 19.003,40.184" id="Fill-134" fill="#2C343C"></path>
            <path d="M5.694,40.184 C5.694,39.714 6.074,39.334 6.543,39.334 C7.012,39.334 7.393,39.714 7.393,40.184 C7.393,40.653 7.012,41.033 6.543,41.033 C6.074,41.033 5.694,40.653 5.694,40.184" id="Fill-135" fill="#2C343C"></path>
            <path d="M58.93,28.29 C58.93,27.821 59.311,27.441 59.78,27.441 C60.249,27.441 60.629,27.821 60.629,28.29 C60.629,28.759 60.249,29.14 59.78,29.14 C59.311,29.14 58.93,28.759 58.93,28.29" id="Fill-136" fill="#2C343C"></path>
            <path d="M45.621,28.29 C45.621,27.821 46.002,27.441 46.471,27.441 C46.94,27.441 47.32,27.821 47.32,28.29 C47.32,28.759 46.94,29.14 46.471,29.14 C46.002,29.14 45.621,28.759 45.621,28.29" id="Fill-137" fill="#2C343C"></path>
            <path d="M32.312,28.29 C32.312,27.821 32.692,27.441 33.162,27.441 C33.631,27.441 34.011,27.821 34.011,28.29 C34.011,28.759 33.631,29.14 33.162,29.14 C32.692,29.14 32.312,28.759 32.312,28.29" id="Fill-138" fill="#2C343C"></path>
            <path d="M19.003,28.29 C19.003,27.821 19.383,27.441 19.852,27.441 C20.322,27.441 20.702,27.821 20.702,28.29 C20.702,28.759 20.322,29.14 19.852,29.14 C19.383,29.14 19.003,28.759 19.003,28.29" id="Fill-139" fill="#2C343C"></path>
            <path d="M5.694,28.29 C5.694,27.821 6.074,27.441 6.543,27.441 C7.012,27.441 7.393,27.821 7.393,28.29 C7.393,28.759 7.012,29.14 6.543,29.14 C6.074,29.14 5.694,28.759 5.694,28.29" id="Fill-140" fill="#2C343C"></path>
            <path d="M58.93,16.397 C58.93,15.928 59.311,15.548 59.78,15.548 C60.249,15.548 60.629,15.928 60.629,16.397 C60.629,16.866 60.249,17.246 59.78,17.246 C59.311,17.246 58.93,16.866 58.93,16.397" id="Fill-141" fill="#2C343C"></path>
            <path d="M45.621,16.397 C45.621,15.928 46.002,15.548 46.471,15.548 C46.94,15.548 47.32,15.928 47.32,16.397 C47.32,16.866 46.94,17.246 46.471,17.246 C46.002,17.246 45.621,16.866 45.621,16.397" id="Fill-142" fill="#2C343C"></path>
            <path d="M32.312,16.397 C32.312,15.928 32.692,15.548 33.162,15.548 C33.631,15.548 34.011,15.928 34.011,16.397 C34.011,16.866 33.631,17.246 33.162,17.246 C32.692,17.246 32.312,16.866 32.312,16.397" id="Fill-143" fill="#2C343C"></path>
            <path d="M19.003,16.397 C19.003,15.928 19.383,15.548 19.852,15.548 C20.322,15.548 20.702,15.928 20.702,16.397 C20.702,16.866 20.322,17.246 19.852,17.246 C19.383,17.246 19.003,16.866 19.003,16.397" id="Fill-144" fill="#2C343C"></path>
            <path d="M5.694,16.397 C5.694,15.928 6.074,15.548 6.543,15.548 C7.012,15.548 7.393,15.928 7.393,16.397 C7.393,16.866 7.012,17.246 6.543,17.246 C6.074,17.246 5.694,16.866 5.694,16.397" id="Fill-145" fill="#2C343C"></path>
        </g>
    </g>
</svg>