<svg xmlns="http://www.w3.org/2000/svg" width="25" height="25" viewBox="0 0 25 25"><path d="M17.81 0a3 3 0 0 0-2.13.88 2.88 2.88 0 0 0-.75 1.34 3.34 3.34 0 0 0-.62-.1 3 3 0 0 0-2.13 5.07L13 8l-5 5-.84-.84a3 3 0 0 0-2.09-.88A3 3 0 0 0 2.18 15a2.75 2.75 0 0 0-1.31.72 3 3 0 0 0 0 4.22l1.34 1.37-.65.69L3 23.44l.69-.69 1.41 1.37a3 3 0 0 0 4.22 0 3.06 3.06 0 0 0 .75-1.31 3 3 0 0 0 2.75-5L12 17l5-5 .85.84a3 3 0 0 0 5-2.75 3 3 0 0 0 1.31-.75 3 3 0 0 0 0-4.22l-1.38-1.4.65-.72L22 1.56l-.68.69L19.9.88A3 3 0 0 0 17.81 0zm0 2a1 1 0 0 1 .68.28l4.22 4.22a1 1 0 0 1 0 1.34 1 1 0 0 1-1.4 0l-4.19-4.15a1 1 0 0 1 0-1.4 1 1 0 0 1 .69-.29zm-3.5 2.09a1 1 0 0 1 .68.32l5.6 5.59a1 1 0 0 1 0 1.4 1 1 0 0 1-1.38 0l-5.59-5.6a1 1 0 0 1 0-1.37 1 1 0 0 1 .69-.34zm.12 5.35l1.13 1.12-5 5-1.13-1.12zm-9.34 3.87a1 1 0 0 1 .68.31l5.59 5.6a1 1 0 0 1 0 1.37 1 1 0 0 1-1.38 0l-.68-.68-.13-.1-4.08-4.12L4.4 15a1 1 0 0 1 0-1.4 1 1 0 0 1 .69-.29zM3 16.81a1.09 1.09 0 0 1 .72.31l4.19 4.19a1 1 0 0 1 0 1.4 1 1 0 0 1-1.38 0L2.27 18.5a1 1 0 0 1 0-1.34 1 1 0 0 1 .73-.35z" fill="#f3583f"/></svg>